<svg width="129" height="38" viewBox="0 0 129 38" fill="none" xmlns="http://www.w3.org/2000/svg">
<path d="M25.5619 6.58558V0.357179L6.1564 0.357178C3.16116 0.357178 0.733032 2.7853 0.733032 5.78055V25.1861H6.96144V9.29727C6.96144 7.79964 8.1755 6.58558 9.67312 6.58558H25.5619Z" fill="#0055FF"/>
<path d="M6.96144 9.29727C6.96144 7.79964 8.1755 6.58558 9.67312 6.58558H25.5619V0.357179L6.1564 0.357178C3.16116 0.357178 0.733032 2.7853 0.733032 5.78055V25.1861H6.96144V9.29727Z" fill="#0055FF"/>
<path d="M25.5619 6.58558V0.357179L6.1564 0.357178C3.16116 0.357178 0.733032 2.7853 0.733032 5.78055V25.1861H6.96144V9.29727C6.96144 7.79964 8.1755 6.58558 9.67312 6.58558H25.5619Z" fill="#0055FF"/>
<path d="M6.96144 9.29727C6.96144 7.79964 8.1755 6.58558 9.67312 6.58558H25.5619V0.357179L6.1564 0.357178C3.16116 0.357178 0.733032 2.7853 0.733032 5.78055V25.1861H6.96144V9.29727Z" fill="#0055FF"/>
<path d="M13.1899 31.4501L13.1898 37.6785L32.7648 37.6785C35.6665 37.6785 38.0187 35.3262 38.0187 32.4246L38.0187 12.8496L31.7903 12.8496L31.7903 28.7384C31.7903 30.236 30.5763 31.4501 29.0786 31.4501L13.1899 31.4501Z" fill="#0055FF"/>
<path d="M31.7903 28.7384C31.7903 30.236 30.5763 31.4501 29.0786 31.4501L13.1899 31.4501L13.1898 37.6785L32.7648 37.6785C35.6665 37.6785 38.0187 35.3262 38.0187 32.4246L38.0187 12.8496L31.7903 12.8496L31.7903 28.7384Z" fill="#0055FF"/>
<path d="M13.1899 31.4501L13.1898 37.6785L32.7648 37.6785C35.6665 37.6785 38.0187 35.3262 38.0187 32.4246L38.0187 12.8496L31.7903 12.8496L31.7903 28.7384C31.7903 30.236 30.5763 31.4501 29.0786 31.4501L13.1899 31.4501Z" fill="#0055FF"/>
<path d="M31.7903 28.7384C31.7903 30.236 30.5763 31.4501 29.0786 31.4501L13.1899 31.4501L13.1898 37.6785L32.7648 37.6785C35.6665 37.6785 38.0187 35.3262 38.0187 32.4246L38.0187 12.8496L31.7903 12.8496L31.7903 28.7384Z" fill="#0055FF"/>
<g opacity="0.64">
<path d="M13.1898 15.5257C13.1898 14.028 14.4039 12.814 15.9015 12.814H22.8502C24.3479 12.814 25.5619 14.028 25.5619 15.5257V22.4743C25.5619 23.972 24.3479 25.186 22.8502 25.186H15.9015C14.4039 25.186 13.1898 23.972 13.1898 22.4743V15.5257Z" fill="#0055FF"/>
<path d="M13.1898 15.5257C13.1898 14.028 14.4039 12.814 15.9015 12.814H22.8502C24.3479 12.814 25.5619 14.028 25.5619 15.5257V22.4743C25.5619 23.972 24.3479 25.186 22.8502 25.186H15.9015C14.4039 25.186 13.1898 23.972 13.1898 22.4743V15.5257Z" fill="#0055FF"/>
</g>
<path d="M56.6943 24.9488C56.0923 23.9396 55.4194 22.8595 54.6758 21.7086C53.9321 20.54 53.1619 19.3714 52.3651 18.2028C51.5683 17.0164 50.7538 15.8744 49.9217 14.7766C49.1072 13.6611 48.3281 12.6607 47.5844 11.7754V24.9488H44.2911V6.54321H47.0267C47.7349 7.28687 48.4963 8.17218 49.3108 9.19915C50.1253 10.2084 50.9398 11.2619 51.7542 12.3597C52.5864 13.4575 53.3832 14.5641 54.1446 15.6796C54.9237 16.7774 55.6142 17.8044 56.2162 18.7605V6.54321H59.5361V24.9488H56.6943Z" fill="#0E255D"/>
<path d="M68.6788 22.6913C69.6703 22.6913 70.4228 22.6382 70.9363 22.5319V18.973C70.7592 18.9199 70.5025 18.8667 70.1661 18.8136C69.8297 18.7605 69.4578 18.7339 69.0506 18.7339C68.6965 18.7339 68.3335 18.7605 67.9617 18.8136C67.6075 18.8667 67.28 18.9641 66.979 19.1058C66.6957 19.2474 66.4655 19.451 66.2884 19.7166C66.1114 19.9645 66.0228 20.2832 66.0228 20.6728C66.0228 21.4341 66.2619 21.9653 66.7399 22.2663C67.218 22.5496 67.8643 22.6913 68.6788 22.6913ZM68.4132 10.713C69.4755 10.713 70.3697 10.8458 71.0957 11.1114C71.8216 11.377 72.3971 11.7488 72.822 12.2269C73.2647 12.705 73.5745 13.2893 73.7516 13.9798C73.9464 14.6527 74.0438 15.3963 74.0438 16.2108V24.6301C73.548 24.7364 72.7955 24.8603 71.7862 25.0019C70.7947 25.1613 69.6703 25.241 68.4132 25.241C67.581 25.241 66.8196 25.1613 66.1291 25.0019C65.4385 24.8426 64.8454 24.5859 64.3496 24.2317C63.8715 23.8776 63.4908 23.4172 63.2075 22.8506C62.9419 22.284 62.8092 21.5846 62.8092 20.7525C62.8092 19.9557 62.9597 19.2828 63.2607 18.7339C63.5794 18.1851 64.0043 17.7424 64.5355 17.406C65.0667 17.0519 65.6776 16.804 66.3681 16.6623C67.0764 16.503 67.8112 16.4233 68.5725 16.4233C68.9267 16.4233 69.2985 16.4498 69.688 16.503C70.0776 16.5384 70.4937 16.6092 70.9363 16.7154V16.1843C70.9363 15.8124 70.892 15.4583 70.8035 15.1219C70.715 14.7855 70.5556 14.4933 70.3254 14.2454C70.113 13.9798 69.8208 13.7762 69.449 13.6346C69.0949 13.4929 68.6434 13.4221 68.0945 13.4221C67.3508 13.4221 66.6691 13.4752 66.0494 13.5814C65.4297 13.6877 64.925 13.8116 64.5355 13.9533L64.1371 11.3505C64.5444 11.2088 65.1375 11.0672 65.9166 10.9255C66.6957 10.7839 67.5279 10.713 68.4132 10.713Z" fill="#0E255D"/>
<path d="M77.8199 7.39311L81.0336 6.86192V11.0583H85.9737V13.7408H81.0336V19.3979C81.0336 20.5134 81.2107 21.3102 81.5648 21.7883C81.9189 22.2663 82.521 22.5054 83.3708 22.5054C83.9552 22.5054 84.4686 22.4434 84.9113 22.3195C85.3717 22.1955 85.7346 22.0804 86.0002 21.9742L86.5314 24.5239C86.1596 24.6832 85.6727 24.8426 85.0706 25.0019C84.4686 25.179 83.7604 25.2675 82.9459 25.2675C81.9543 25.2675 81.1222 25.1347 80.4493 24.8692C79.7942 24.6036 79.2719 24.2229 78.8823 23.7271C78.4928 23.2136 78.2183 22.6028 78.059 21.8945C77.8996 21.1686 77.8199 20.3452 77.8199 19.4245V7.39311Z" fill="#0E255D"/>
<path d="M88.0766 18.07C88.0766 16.8482 88.2537 15.777 88.6078 14.8563C88.9796 13.9356 89.4666 13.1742 90.0686 12.5722C90.6706 11.9525 91.3611 11.4921 92.1402 11.1911C92.9193 10.8724 93.7161 10.713 94.5305 10.713C96.4428 10.713 97.9301 11.3062 98.9925 12.4925C100.073 13.6788 100.613 15.4494 100.613 17.8044C100.613 17.9814 100.604 18.1851 100.586 18.4152C100.586 18.6277 100.577 18.8225 100.56 18.9995H91.3965C91.4851 20.115 91.8746 20.9826 92.5651 21.6024C93.2734 22.2044 94.2915 22.5054 95.6195 22.5054C96.3985 22.5054 97.1068 22.4345 97.7442 22.2929C98.3993 22.1512 98.9128 22.0007 99.2847 21.8414L99.7096 24.4708C99.5325 24.5593 99.2847 24.6567 98.966 24.7629C98.6649 24.8514 98.3108 24.9311 97.9036 25.0019C97.514 25.0905 97.0891 25.1613 96.6287 25.2144C96.1684 25.2675 95.6992 25.2941 95.2211 25.2941C93.9994 25.2941 92.937 25.117 92.034 24.7629C91.1309 24.3911 90.3873 23.8865 89.803 23.249C89.2187 22.5939 88.7849 21.8325 88.5016 20.9649C88.2183 20.0796 88.0766 19.1146 88.0766 18.07ZM97.3989 16.6358C97.3989 16.1931 97.337 15.777 97.213 15.3875C97.0891 14.9802 96.9032 14.635 96.6553 14.3517C96.4251 14.0507 96.133 13.8205 95.7788 13.6611C95.4424 13.4841 95.0352 13.3955 94.5571 13.3955C94.0613 13.3955 93.6275 13.4929 93.2557 13.6877C92.8839 13.8647 92.5651 14.1038 92.2996 14.4048C92.0517 14.7058 91.8569 15.0511 91.7153 15.4406C91.5736 15.8301 91.4762 16.2285 91.4231 16.6358H97.3989Z" fill="#0E255D"/>
<path d="M103.25 18.0168C103.25 16.9899 103.409 16.0337 103.728 15.1484C104.046 14.2454 104.498 13.4663 105.082 12.8112C105.684 12.1561 106.41 11.6426 107.26 11.2708C108.11 10.8989 109.066 10.713 110.129 10.713C111.439 10.713 112.678 10.9521 113.847 11.4301L113.156 14.0595C112.784 13.9001 112.36 13.7674 111.881 13.6611C111.421 13.5549 110.925 13.5018 110.394 13.5018C109.137 13.5018 108.181 13.9001 107.526 14.6969C106.871 15.476 106.543 16.5826 106.543 18.0168C106.543 19.3979 106.853 20.4957 107.473 21.3102C108.092 22.107 109.137 22.5054 110.607 22.5054C111.156 22.5054 111.696 22.4523 112.227 22.346C112.758 22.2398 113.218 22.107 113.608 21.9476L114.059 24.6036C113.705 24.7806 113.165 24.94 112.439 25.0816C111.731 25.2233 110.996 25.2941 110.235 25.2941C109.048 25.2941 108.013 25.117 107.127 24.7629C106.26 24.3911 105.534 23.8865 104.949 23.249C104.383 22.5939 103.958 21.8237 103.675 20.9384C103.391 20.0354 103.25 19.0615 103.25 18.0168Z" fill="#0E255D"/>
<path d="M116.547 24.9488V7.35832L119.761 6.82713V11.2177C120.115 11.0937 120.522 10.9875 120.983 10.8989C121.461 10.8104 121.93 10.7661 122.39 10.7661C123.506 10.7661 124.427 10.9255 125.153 11.2442C125.896 11.5452 126.489 11.979 126.932 12.5456C127.375 13.0945 127.685 13.7585 127.862 14.5376C128.056 15.3166 128.154 16.1843 128.154 17.1404V24.9488H124.94V17.645C124.94 16.9014 124.887 16.2728 124.781 15.7593C124.692 15.2281 124.533 14.8032 124.303 14.4845C124.09 14.148 123.798 13.909 123.426 13.7674C123.054 13.608 122.594 13.5283 122.045 13.5283C121.62 13.5283 121.186 13.5726 120.744 13.6611C120.301 13.7496 119.974 13.8293 119.761 13.9001V24.9488H116.547Z" fill="#0E255D"/>
<path d="M46.153 34.3013C45.8467 34.3013 45.5404 34.2906 45.2341 34.2691C44.9332 34.253 44.6189 34.21 44.2911 34.1401V28.7237C44.549 28.6753 44.8311 28.6404 45.1374 28.6189C45.4437 28.592 45.7285 28.5786 45.9918 28.5786C46.3464 28.5786 46.6715 28.6055 46.9671 28.6592C47.268 28.7076 47.5259 28.7936 47.7408 28.9171C47.9558 29.0407 48.1224 29.2046 48.2406 29.4088C48.3642 29.6076 48.426 29.8548 48.426 30.1504C48.426 30.5964 48.211 30.9483 47.7811 31.2062C48.1358 31.3406 48.3776 31.5233 48.5066 31.7543C48.6355 31.9854 48.7 32.246 48.7 32.5362C48.7 33.1219 48.4851 33.5625 48.0552 33.858C47.6307 34.1536 46.9966 34.3013 46.153 34.3013ZM45.5162 31.7946V33.2374C45.6076 33.2482 45.707 33.2562 45.8145 33.2616C45.9219 33.267 46.0401 33.2696 46.1691 33.2696C46.5452 33.2696 46.8488 33.2159 47.0799 33.1084C47.311 33.001 47.4265 32.8022 47.4265 32.512C47.4265 32.2541 47.3298 32.0714 47.1363 31.9639C46.9429 31.8511 46.6661 31.7946 46.3061 31.7946H45.5162ZM45.5162 30.8355H46.1288C46.5157 30.8355 46.7924 30.7871 46.959 30.6904C47.1256 30.5883 47.2089 30.4271 47.2089 30.2068C47.2089 29.9811 47.1229 29.8226 46.9509 29.7312C46.779 29.6399 46.5264 29.5942 46.1933 29.5942C46.0858 29.5942 45.9703 29.5969 45.8467 29.6023C45.7231 29.6023 45.6129 29.6076 45.5162 29.6184V30.8355Z" fill="#0E255D"/>
<path d="M53.3677 34.2288C53.3086 34.0354 53.2415 33.8365 53.1662 33.6324C53.0964 33.4282 53.0265 33.224 52.9567 33.0198H50.7804C50.7106 33.224 50.638 33.4282 50.5628 33.6324C50.4929 33.8365 50.4284 34.0354 50.3693 34.2288H49.0636C49.2732 33.627 49.472 33.0708 49.66 32.5603C49.8481 32.0499 50.0308 31.5689 50.2081 31.1176C50.3908 30.6662 50.5682 30.239 50.7401 29.836C50.9174 29.4276 51.1001 29.03 51.2882 28.6431H52.4892C52.6719 29.03 52.8519 29.4276 53.0292 29.836C53.2065 30.239 53.3839 30.6662 53.5612 31.1176C53.7439 31.5689 53.9293 32.0499 54.1173 32.5603C54.3054 33.0708 54.5042 33.627 54.7138 34.2288H53.3677ZM51.8605 29.9085C51.8336 29.9891 51.7933 30.0993 51.7396 30.239C51.6858 30.3787 51.624 30.5399 51.5542 30.7226C51.4843 30.9053 51.4064 31.1068 51.3204 31.3271C51.2398 31.5475 51.1566 31.7785 51.0706 32.0203H52.6584C52.5725 31.7785 52.4892 31.5475 52.4086 31.3271C52.328 31.1068 52.2501 30.9053 52.1748 30.7226C52.105 30.5399 52.0432 30.3787 51.9894 30.239C51.9357 30.0993 51.8927 29.9891 51.8605 29.9085Z" fill="#0E255D"/>
<path d="M59.1848 34.2288C58.8248 33.5894 58.4352 32.958 58.0161 32.3347C57.5969 31.7113 57.1509 31.123 56.6781 30.5695V34.2288H55.4368V28.6431H56.4605C56.6378 28.8204 56.8339 29.038 57.0488 29.296C57.2638 29.5539 57.4814 29.8306 57.7017 30.1262C57.9274 30.4163 58.1504 30.7199 58.3707 31.037C58.591 31.3486 58.7979 31.6495 58.9913 31.9397V28.6431H60.2407V34.2288H59.1848Z" fill="#0E255D"/>
<path d="M64.8258 34.2288C64.7129 34.0461 64.5786 33.85 64.4228 33.6404C64.2723 33.4255 64.1057 33.2132 63.923 33.0037C63.7457 32.7887 63.5603 32.5845 63.3669 32.3911C63.1735 32.1923 62.98 32.0176 62.7866 31.8672V34.2288H61.5292V28.6431H62.7866V30.7549C63.1143 30.411 63.4421 30.0536 63.7699 29.6829C64.1031 29.3067 64.412 28.9601 64.6968 28.6431H66.188C65.8064 29.0945 65.4222 29.5297 65.0354 29.9488C64.6538 30.368 64.2508 30.7898 63.8263 31.2143C64.2723 31.5851 64.7022 32.0257 65.116 32.5362C65.5351 33.0466 65.9354 33.6109 66.3169 34.2288H64.8258Z" fill="#0E255D"/>
<path d="M67.0391 28.6431H68.2965V34.2288H67.0391V28.6431Z" fill="#0E255D"/>
<path d="M73.3373 34.2288C72.9773 33.5894 72.5878 32.958 72.1686 32.3347C71.7495 31.7113 71.3035 31.123 70.8306 30.5695V34.2288H69.5894V28.6431H70.613C70.7903 28.8204 70.9865 29.038 71.2014 29.296C71.4163 29.5539 71.634 29.8306 71.8543 30.1262C72.08 30.4163 72.303 30.7199 72.5233 31.037C72.7436 31.3486 72.9505 31.6495 73.1439 31.9397V28.6431H74.3932V34.2288H73.3373Z" fill="#0E255D"/>
<path d="M78.4061 29.6103C77.8204 29.6103 77.3959 29.7742 77.1326 30.102C76.8746 30.4244 76.7457 30.8677 76.7457 31.4319C76.7457 31.706 76.7779 31.9558 76.8424 32.1815C76.9069 32.4018 77.0036 32.5926 77.1326 32.7538C77.2615 32.915 77.4227 33.0413 77.6162 33.1326C77.8096 33.2186 78.0353 33.2616 78.2932 33.2616C78.4329 33.2616 78.5512 33.2589 78.6479 33.2535C78.75 33.2482 78.8386 33.2374 78.9139 33.2213V31.2788H80.1713V34.0434C80.0208 34.1025 79.779 34.1643 79.4458 34.2288C79.1127 34.2987 78.7016 34.3336 78.2126 34.3336C77.7935 34.3336 77.412 34.2691 77.0681 34.1401C76.7296 34.0112 76.4394 33.8231 76.1976 33.5759C75.9558 33.3288 75.7677 33.0252 75.6334 32.6651C75.5044 32.3051 75.4399 31.894 75.4399 31.4319C75.4399 30.9644 75.5125 30.5507 75.6576 30.1907C75.8026 29.8306 76.0015 29.527 76.254 29.2799C76.5066 29.0273 76.8021 28.8365 77.1406 28.7076C77.4845 28.5786 77.8499 28.5141 78.2368 28.5141C78.5001 28.5141 78.7365 28.5329 78.9461 28.5706C79.161 28.6028 79.3437 28.6431 79.4942 28.6915C79.65 28.7344 79.7763 28.7801 79.873 28.8285C79.9751 28.8768 80.0477 28.9145 80.0907 28.9413L79.7279 29.9488C79.556 29.8575 79.3572 29.7796 79.1315 29.7151C78.9112 29.6452 78.6694 29.6103 78.4061 29.6103Z" fill="#0E255D"/>
<path d="M84.8009 33.2696C84.9782 33.2696 85.1233 33.2562 85.2361 33.2293C85.3544 33.1971 85.4484 33.1568 85.5182 33.1084C85.5881 33.0547 85.6365 32.9929 85.6633 32.9231C85.6902 32.8532 85.7036 32.7753 85.7036 32.6893C85.7036 32.5066 85.6177 32.3562 85.4457 32.2379C85.2738 32.1144 84.9782 31.9827 84.5591 31.843C84.3764 31.7785 84.1937 31.706 84.011 31.6254C83.8283 31.5394 83.6644 31.4346 83.5193 31.311C83.3742 31.1821 83.256 31.0289 83.1647 30.8516C83.0733 30.6689 83.0276 30.4486 83.0276 30.1907C83.0276 29.9327 83.076 29.7017 83.1727 29.4975C83.2695 29.2879 83.4065 29.1106 83.5838 28.9655C83.7611 28.8204 83.9761 28.7103 84.2286 28.635C84.4812 28.5544 84.766 28.5141 85.083 28.5141C85.4591 28.5141 85.7842 28.5544 86.0583 28.635C86.3323 28.7156 86.558 28.8043 86.7353 28.901L86.3726 29.8924C86.2168 29.8118 86.0422 29.742 85.8487 29.6829C85.6606 29.6184 85.4323 29.5861 85.1636 29.5861C84.8627 29.5861 84.6451 29.6291 84.5107 29.7151C84.3818 29.7957 84.3173 29.922 84.3173 30.0939C84.3173 30.196 84.3415 30.282 84.3898 30.3519C84.4382 30.4217 84.5054 30.4862 84.5913 30.5453C84.6827 30.599 84.7848 30.6501 84.8976 30.6984C85.0158 30.7414 85.1448 30.7871 85.2845 30.8355C85.5747 30.9429 85.8272 31.0504 86.0422 31.1579C86.2571 31.26 86.4344 31.3809 86.5741 31.5206C86.7192 31.6603 86.8267 31.8242 86.8965 32.0123C86.9664 32.2003 87.0013 32.4287 87.0013 32.6974C87.0013 33.2186 86.8186 33.6243 86.4532 33.9145C86.0878 34.1993 85.5371 34.3417 84.8009 34.3417C84.5537 34.3417 84.3307 34.3255 84.1319 34.2933C83.9331 34.2664 83.7558 34.2315 83.5999 34.1885C83.4495 34.1455 83.3178 34.0998 83.205 34.0515C83.0975 34.0031 83.0062 33.9574 82.9309 33.9145L83.2856 32.915C83.4522 33.0063 83.6563 33.0896 83.8982 33.1649C84.1453 33.2347 84.4462 33.2696 84.8009 33.2696Z" fill="#0E255D"/>
<path d="M89.0247 31.4319C89.0247 31.706 89.0569 31.9531 89.1214 32.1735C89.1913 32.3938 89.288 32.5845 89.4116 32.7457C89.5405 32.9016 89.6964 33.0225 89.8791 33.1084C90.0618 33.1944 90.2713 33.2374 90.5078 33.2374C90.7388 33.2374 90.9457 33.1944 91.1284 33.1084C91.3165 33.0225 91.4723 32.9016 91.5959 32.7457C91.7248 32.5845 91.8216 32.3938 91.886 32.1735C91.9559 31.9531 91.9908 31.706 91.9908 31.4319C91.9908 31.1579 91.9559 30.9107 91.886 30.6904C91.8216 30.4647 91.7248 30.2739 91.5959 30.1181C91.4723 29.9569 91.3165 29.8333 91.1284 29.7473C90.9457 29.6614 90.7388 29.6184 90.5078 29.6184C90.2713 29.6184 90.0618 29.6641 89.8791 29.7554C89.6964 29.8414 89.5405 29.965 89.4116 30.1262C89.288 30.282 89.1913 30.4728 89.1214 30.6984C89.0569 30.9188 89.0247 31.1632 89.0247 31.4319ZM93.2885 31.4319C93.2885 31.9102 93.216 32.332 93.0709 32.6974C92.9312 33.0574 92.7377 33.361 92.4906 33.6082C92.2434 33.85 91.9478 34.0327 91.6039 34.1563C91.2654 34.2799 90.9 34.3417 90.5078 34.3417C90.1262 34.3417 89.7662 34.2799 89.4277 34.1563C89.0892 34.0327 88.7936 33.85 88.5411 33.6082C88.2885 33.361 88.0897 33.0574 87.9446 32.6974C87.7995 32.332 87.727 31.9102 87.727 31.4319C87.727 30.9537 87.8022 30.5346 87.9527 30.1745C88.1031 29.8091 88.3046 29.5029 88.5572 29.2557C88.8151 29.0085 89.1107 28.8231 89.4438 28.6995C89.7823 28.5759 90.137 28.5141 90.5078 28.5141C90.8893 28.5141 91.2493 28.5759 91.5878 28.6995C91.9263 28.8231 92.2219 29.0085 92.4744 29.2557C92.727 29.5029 92.9258 29.8091 93.0709 30.1745C93.216 30.5346 93.2885 30.9537 93.2885 31.4319Z" fill="#0E255D"/>
<path d="M98.0685 33.1487V34.2288H94.3367V28.6431H95.594V33.1487H98.0685Z" fill="#0E255D"/>
<path d="M100.984 34.3417C100.592 34.3417 100.253 34.2879 99.9684 34.1804C99.6836 34.0676 99.4472 33.9145 99.2591 33.721C99.0764 33.5222 98.9394 33.2885 98.848 33.0198C98.7621 32.7457 98.7191 32.4448 98.7191 32.117V28.6431H99.9765V32.0123C99.9765 32.2379 100.001 32.4314 100.049 32.5926C100.103 32.7484 100.173 32.8774 100.259 32.9795C100.35 33.0762 100.457 33.1461 100.581 33.189C100.71 33.232 100.85 33.2535 101 33.2535C101.306 33.2535 101.554 33.1595 101.742 32.9714C101.935 32.7833 102.032 32.4636 102.032 32.0123V28.6431H103.289V32.117C103.289 32.4448 103.244 32.7457 103.152 33.0198C103.061 33.2938 102.921 33.5303 102.733 33.7291C102.545 33.9225 102.306 34.073 102.016 34.1804C101.726 34.2879 101.382 34.3417 100.984 34.3417Z" fill="#0E255D"/>
<path d="M108.641 28.6431V29.7151H106.957V34.2288H105.699V29.7151H104.015V28.6431H108.641Z" fill="#0E255D"/>
<path d="M109.45 28.6431H110.707V34.2288H109.45V28.6431Z" fill="#0E255D"/>
<path d="M113.056 31.4319C113.056 31.706 113.088 31.9531 113.152 32.1735C113.222 32.3938 113.319 32.5845 113.443 32.7457C113.572 32.9016 113.727 33.0225 113.91 33.1084C114.093 33.1944 114.302 33.2374 114.539 33.2374C114.77 33.2374 114.977 33.1944 115.159 33.1084C115.347 33.0225 115.503 32.9016 115.627 32.7457C115.756 32.5845 115.853 32.3938 115.917 32.1735C115.987 31.9531 116.022 31.706 116.022 31.4319C116.022 31.1579 115.987 30.9107 115.917 30.6904C115.853 30.4647 115.756 30.2739 115.627 30.1181C115.503 29.9569 115.347 29.8333 115.159 29.7473C114.977 29.6614 114.77 29.6184 114.539 29.6184C114.302 29.6184 114.093 29.6641 113.91 29.7554C113.727 29.8414 113.572 29.965 113.443 30.1262C113.319 30.282 113.222 30.4728 113.152 30.6984C113.088 30.9188 113.056 31.1632 113.056 31.4319ZM117.32 31.4319C117.32 31.9102 117.247 32.332 117.102 32.6974C116.962 33.0574 116.769 33.361 116.522 33.6082C116.274 33.85 115.979 34.0327 115.635 34.1563C115.296 34.2799 114.931 34.3417 114.539 34.3417C114.157 34.3417 113.797 34.2799 113.459 34.1563C113.12 34.0327 112.825 33.85 112.572 33.6082C112.32 33.361 112.121 33.0574 111.976 32.6974C111.831 32.332 111.758 31.9102 111.758 31.4319C111.758 30.9537 111.833 30.5346 111.984 30.1745C112.134 29.8091 112.336 29.5029 112.588 29.2557C112.846 29.0085 113.142 28.8231 113.475 28.6995C113.813 28.5759 114.168 28.5141 114.539 28.5141C114.92 28.5141 115.28 28.5759 115.619 28.6995C115.957 28.8231 116.253 29.0085 116.505 29.2557C116.758 29.5029 116.957 29.8091 117.102 30.1745C117.247 30.5346 117.32 30.9537 117.32 31.4319Z" fill="#0E255D"/>
<path d="M122.116 34.2288C121.756 33.5894 121.366 32.958 120.947 32.3347C120.528 31.7113 120.082 31.123 119.609 30.5695V34.2288H118.368V28.6431H119.391C119.569 28.8204 119.765 29.038 119.98 29.296C120.195 29.5539 120.412 29.8306 120.633 30.1262C120.858 30.4163 121.081 30.7199 121.302 31.037C121.522 31.3486 121.729 31.6495 121.922 31.9397V28.6431H123.172V34.2288H122.116Z" fill="#0E255D"/>
<path d="M125.983 33.2696C126.161 33.2696 126.306 33.2562 126.419 33.2293C126.537 33.1971 126.631 33.1568 126.701 33.1084C126.771 33.0547 126.819 32.9929 126.846 32.9231C126.873 32.8532 126.886 32.7753 126.886 32.6893C126.886 32.5066 126.8 32.3562 126.628 32.2379C126.456 32.1144 126.161 31.9827 125.742 31.843C125.559 31.7785 125.376 31.706 125.194 31.6254C125.011 31.5394 124.847 31.4346 124.702 31.311C124.557 31.1821 124.439 31.0289 124.347 30.8516C124.256 30.6689 124.21 30.4486 124.21 30.1907C124.21 29.9327 124.259 29.7017 124.355 29.4975C124.452 29.2879 124.589 29.1106 124.766 28.9655C124.944 28.8204 125.159 28.7103 125.411 28.635C125.664 28.5544 125.948 28.5141 126.266 28.5141C126.642 28.5141 126.967 28.5544 127.241 28.635C127.515 28.7156 127.741 28.8043 127.918 28.901L127.555 29.8924C127.399 29.8118 127.225 29.742 127.031 29.6829C126.843 29.6184 126.615 29.5861 126.346 29.5861C126.045 29.5861 125.828 29.6291 125.693 29.7151C125.564 29.7957 125.5 29.922 125.5 30.0939C125.5 30.196 125.524 30.282 125.572 30.3519C125.621 30.4217 125.688 30.4862 125.774 30.5453C125.865 30.599 125.967 30.6501 126.08 30.6984C126.198 30.7414 126.327 30.7871 126.467 30.8355C126.757 30.9429 127.01 31.0504 127.225 31.1579C127.44 31.26 127.617 31.3809 127.757 31.5206C127.902 31.6603 128.009 31.8242 128.079 32.0123C128.149 32.2003 128.184 32.4287 128.184 32.6974C128.184 33.2186 128.001 33.6243 127.636 33.9145C127.27 34.1993 126.72 34.3417 125.983 34.3417C125.736 34.3417 125.513 34.3255 125.314 34.2933C125.116 34.2664 124.938 34.2315 124.782 34.1885C124.632 34.1455 124.5 34.0998 124.387 34.0515C124.28 34.0031 124.189 33.9574 124.113 33.9145L124.468 32.915C124.635 33.0063 124.839 33.0896 125.081 33.1649C125.328 33.2347 125.629 33.2696 125.983 33.2696Z" fill="#0E255D"/>
</svg>
